<?xml version="1.0" standalone="no"?><!DOCTYPE svg PUBLIC "-//W3C//DTD SVG 1.1//EN" "http://www.w3.org/Graphics/SVG/1.1/DTD/svg11.dtd"><svg t="1749181090726" class="icon" viewBox="0 0 1024 1024" version="1.1" xmlns="http://www.w3.org/2000/svg" p-id="7203" xmlns:xlink="http://www.w3.org/1999/xlink" width="200" height="200"><path d="M903.28 400c-34-8.6-70.39 2.15-104.72 0.4-28.42-1.45-58.65-8.13-87.62-10.07-36.8-2.47-73.57-7.3-110.46-6.13-27.28 0.86-59.66 14.37-85.94 10.24-12.28-1.93-18.44 2.17-21.93 0.23-2.54-1.41-4.95-4.32-7.29-7.78-0.28-14-3.58-27.56-15.2-44.53-13.74-20.07-33.51-36-55-47.88-2.53-1.44-5.16-2.77-7.81-4.07-5.2-2.61-10.45-5.08-15.73-7.23-82.58-33.76-171.77-11.96-242.73 39.36C27.89 410 34.62 678.61 179.56 740.89c74.1 31.84 179.23 15.39 238.89-38.63 33.29-30.14 42.09-69.33 65.38-104.46 23.18-35 81.58-34.47 125.07-36.68 32.41-1.65 36.35-4.28 46.94 24.06 4 10.72-1.64 19.71 5.47 30.67 10.49 16.2 28.35 23.73 48 20.35 40.87-7.06 78.19-139.52 97.35-52.52 11.41 51.81-20.08 151.53 60.85 147.41 106.41-5.41 83.59-101.53 84.33-178a24.63 24.63 0 0 0 6.91-17c1.55-55.98 10.48-119.45-55.47-136.09z m-43.41 283.21c-21.43-23.64-14.4-79.49-18.72-111.69-5.39-40.14-17.56-60-64.19-54.76-16.07 1.82-25.09 4.85-38.2 14.17-4.32 3.07-2.63 11-6.09 14.27q-0.7 16.89-22.12 22.26-28.29 36.36-20.41 2.83c-9.3-11.18 0.75-25-15.13-37.61-13.2-10.49-36.68-7-51.66-6-30.39 1.93-59.8 10-90.33 9.58-20.6-0.27-40-6.88-58.42 4.83-24.68 15.66-29.62 51.21-43.37 75-29.68 51.3-84.28 87.48-143.33 96 5.24-22.26 16.15-42.63 23.84-64.2a265.86 265.86 0 0 0 15.09-71.57c0.32-4.58-6.69-4.5-7.09 0-2.55 28.83-10.07 55.5-21.29 82.1-7.7 18.26-16.93 35.31-20.73 54.74a179.82 179.82 0 0 1-50.26-2.36c4.06-41.16 21.45-79.29 40.23-115.78 2.2-4.27-4.21-8.05-6.46-3.78-19.34 36.67-38.17 75.87-42.13 117.61-2-0.48-3.92-0.82-5.87-1.37C77.19 669 74.54 431.29 170.54 353.91c53.74-43.32 135.93-61.93 203-44.35 32.12 15.65 49.66 46.71 67.21 79.33 18.19 33.8 17.41 56.61 58.25 59.68 22.85 1.72 54.85-8 78.43-10.31 53.3-5.16 105.81 2 159 7.46 42.78 4.38 85.69 1.77 128 5.85 57.57 5.55 44.35 38.47 42.31 84.58a23.12 23.12 0 0 0 5.23 16.43c-3.3 47.24-14.73 171.82-52.1 130.63z" fill="#2c2c2c" p-id="7204"></path><path d="M292.34 485.75c-11-43.25-66.64-79.94-101.36-49.84-13.16 3.79-26.89 11.14-34.37 17.45-43.53 36.73-8.4 93.42 33.44 113 50.39 23.58 116.88-22.96 102.29-80.61z m-92.61 49.12c-22.53-9.72-48.85-36.24-29.58-60.81a68.91 68.91 0 0 1 7.53-7.74c4.47 10.62 18.57 17.32 27.77 6.44 3.68-4.35 7-7.46 10.31-9.37 2.08 1.8 5.71 1.59 6.63-1.78v-0.23c4.52-0.18 9.42 1.89 15.53 6.84 8 6.49 16.75 17 18.51 27.42 5.46 31.77-31.43 50.12-56.71 39.23zM378.31 550c-13.05 42.24-20.67 89-50 123.76-3.92 4.65 2.88 11.39 6.68 6.69 29.61-36.65 37.63-84.36 50.88-128.35 1.5-4.88-6.07-6.94-7.56-2.1zM436.34 551c-0.61-4.71-7.91-5-7.62 0 2.32 39.15-36.28 69.48-58.41 97.45-3.79 4.8 3 11.62 6.78 6.78 23.07-29.4 64.64-62.52 59.25-104.23z" fill="#2c2c2c" p-id="7205"></path></svg>