<?xml version="1.0" standalone="no"?><!DOCTYPE svg PUBLIC "-//W3C//DTD SVG 1.1//EN" "http://www.w3.org/Graphics/SVG/1.1/DTD/svg11.dtd"><svg t="1749181819389" class="icon" viewBox="0 0 1024 1024" version="1.1" xmlns="http://www.w3.org/2000/svg" p-id="36175" xmlns:xlink="http://www.w3.org/1999/xlink" width="200" height="200"><path d="M512 1002.057143C241.371429 1002.057143 29.257143 782.628571 29.257143 512c0-102.4 36.571429-204.8 95.085714-292.571429 14.628571-21.942857 43.885714-21.942857 65.828572-7.314285 21.942857 14.628571 21.942857 43.885714 7.314285 65.828571-51.2 65.828571-80.457143 146.285714-80.457143 234.057143 0 219.428571 175.542857 387.657143 394.971429 387.657143 87.771429 0 168.228571-29.257143 234.057143-80.457143 21.942857-14.628571 51.2-14.628571 65.828571 7.314286s14.628571 51.2-7.314285 65.828571c-80.457143 73.142857-182.857143 109.714286-292.571429 109.714286z m387.657143-234.057143c-7.314286 0-14.628571 0-21.942857-7.314286-21.942857-14.628571-29.257143-43.885714-21.942857-65.828571 29.257143-58.514286 43.885714-124.342857 43.885714-182.857143 0-219.428571-175.542857-394.971429-387.657143-394.971429-65.828571 0-138.971429 14.628571-197.485714 51.2-21.942857 14.628571-51.2 7.314286-58.514286-14.628571-14.628571-21.942857-7.314286-51.2 14.628571-65.828571C343.771429 43.885714 424.228571 21.942857 512 21.942857c270.628571 0 490.057143 219.428571 490.057143 482.742857 0 80.457143-21.942857 160.914286-58.514286 234.057143-14.628571 21.942857-29.257143 29.257143-43.885714 29.257143z" p-id="36176"></path><path d="M365.714286 336.457143h292.571428c14.628571 0 29.257143 14.628571 29.257143 29.257143v292.571428c0 14.628571-14.628571 29.257143-29.257143 29.257143H365.714286c-14.628571 0-29.257143-14.628571-29.257143-29.257143V365.714286c0-14.628571 14.628571-29.257143 29.257143-29.257143z" p-id="36177"></path></svg>